<?xml version="1.0" standalone="no"?>
<!DOCTYPE svg PUBLIC "-//W3C//DTD SVG 20010904//EN"
 "http://www.w3.org/TR/2001/REC-SVG-20010904/DTD/svg10.dtd">
<svg version="1.0" xmlns="http://www.w3.org/2000/svg"
 width="700.000000pt" height="700.000000pt" viewBox="0 0 700.000000 700.000000"
 preserveAspectRatio="xMidYMid meet">
<metadata>
Created by potrace 1.11, written by Peter Selinger 2001-2013
</metadata>
<g transform="translate(0.000000,700.000000) scale(0.100000,-0.100000)"
fill="#000000" stroke="none">
<path d="M4432 5253 c3 -926 3 -928 25 -993 34 -99 78 -173 142 -239 66 -67
124 -103 220 -139 62 -24 80 -26 312 -30 l246 -4 13 -55 c6 -30 32 -96 58
-146 142 -284 476 -436 788 -357 132 33 216 82 319 185 144 143 208 293 208
485 0 125 -16 196 -68 305 -77 160 -178 260 -338 335 -103 48 -176 63 -297 63
-189 0 -342 -65 -481 -203 -98 -97 -141 -167 -179 -289 l-27 -86 -214 0 c-237
0 -261 5 -346 61 -58 40 -95 88 -123 163 -19 49 -20 83 -20 961 l0 910 -120 0
-121 0 3 -927z"/>
<path d="M1594 5465 c-186 -40 -361 -174 -458 -349 -61 -108 -81 -193 -80
-336 0 -143 21 -224 89 -347 45 -80 165 -203 247 -251 128 -76 298 -111 440
-92 172 23 289 81 413 205 63 62 90 99 125 168 l44 87 272 0 c162 0 295 -5
326 -11 81 -17 153 -55 219 -116 69 -64 103 -118 130 -204 18 -59 19 -127 19
-1905 l0 -1844 120 0 120 0 -2 1863 -3 1862 -23 75 c-40 129 -87 206 -187 305
-103 103 -187 152 -319 185 -70 18 -113 20 -356 20 l-277 0 -7 71 c-30 298
-256 553 -544 615 -83 17 -227 17 -308 -1z m281 -237 c140 -35 271 -163 316
-309 36 -116 18 -271 -44 -373 -68 -111 -194 -195 -325 -218 -140 -24 -292 25
-393 127 -95 96 -139 200 -139 330 0 304 284 519 585 443z"/>
<path d="M840 3609 c-238 -32 -437 -180 -540 -402 -48 -103 -63 -176 -63 -297
0 -192 64 -342 208 -485 103 -103 187 -152 319 -185 312 -79 646 73 788 357
26 50 52 117 59 147 l12 56 261 0 c336 0 391 -12 512 -108 61 -48 115 -126
146 -213 l23 -64 3 -972 3 -973 115 0 115 0 -3 998 -3 997 -23 70 c-76 227
-233 385 -463 467 -60 21 -84 23 -373 28 l-309 5 -27 86 c-14 47 -42 112 -60
145 -48 85 -188 221 -275 266 -128 67 -289 96 -425 77z m250 -258 c260 -99
377 -389 255 -637 -128 -262 -468 -339 -697 -159 -299 235 -199 705 173 810
71 20 197 13 269 -14z"/>
<path d="M5892 3010 c-190 -50 -358 -185 -444 -357 -26 -50 -52 -117 -59 -147
l-12 -56 -269 0 c-320 0 -378 -9 -518 -77 -79 -38 -109 -60 -181 -132 -72 -72
-94 -102 -132 -181 -77 -158 -77 -155 -77 -920 l0 -670 115 0 115 0 0 643 c0
384 4 668 10 707 31 198 194 359 395 390 39 6 173 9 304 8 l234 -3 27 -86 c38
-122 81 -192 179 -289 139 -138 292 -203 481 -203 121 0 194 15 297 63 160 75
261 175 338 335 52 109 68 180 68 305 0 114 -27 221 -81 325 -52 101 -191 238
-292 288 -154 76 -341 98 -498 57z m326 -242 c157 -50 278 -196 305 -369 44
-285 -203 -550 -490 -525 -328 27 -522 367 -378 662 102 209 335 305 563 232z"/>
</g>
</svg>
